<svg width="80" height="80" viewBox="0 0 80 80" fill="none" xmlns="http://www.w3.org/2000/svg">
<path d="M40.0614 17.5939L40.2458 17.6552L42.0891 19.4943L42.5192 19.9847L46.5131 23.9693V24.092H46.6359L47.0661 24.5824L50.6298 28.1379L50.7527 28.1992V28.3218L50.9985 28.4444L52.9647 30.4061L53.4562 30.8352L54.5008 31.8774L54.9309 32.3678L58.0031 35.4329L58.4332 35.9234L58.8018 36.3525L58.9862 36.4751L59.0476 36.4138L59.1091 32.7356L59.2319 32.1839H63.9631L64.0246 41.5019L67.5269 44.9962L68.0184 45.4253L68.2028 45.6092V45.7318H68.3257L68.7558 46.2222L69.3088 46.7739L69.7389 47.2644L70.2304 47.7548L70.5991 48.2452L70.5376 48.4904L64.3318 48.4291L64.0246 48.3678H60.3379L59.8464 48.4904H59.5392L58.7404 47.7548L58.3103 47.2644L57.2043 46.1609L57.0814 46.0996V45.977H56.9585V45.8544L56.7127 45.7318L55.8525 44.8123L53.4562 42.4215L53.149 42.0536L52.6574 41.6245L49.1551 38.1303L48.7865 37.7011L48.2949 37.272L46.9432 35.9234L46.5131 35.4329L42.0891 31.0192V30.8966L41.8433 30.7739L40.1229 29.0575L39.8771 29.1188L23.2258 45.7318L22.7957 46.2222L21.6283 47.387L21.1982 47.8774L20.7066 48.2452L20.3994 48.3678H17.7573L16.9585 48.4291L16.7127 48.3065H16.2826L16.0983 48.4291H14.5008L10.1382 48.3065L9.70814 48.2452L9.6467 48.1226L10.0768 47.5709L12.7189 44.9349L13.2104 44.5057L33.917 23.8467L34.1014 23.6015H34.2243L34.3472 23.3563L38.0338 19.6782L38.4639 19.1877L40.0614 17.5939Z" fill="#FDFDFD"/>
<path d="M39.9559 24.3933L40.3226 24.4546L40.6893 24.6997L41.2394 25.3125L41.3616 25.3737V25.4963L41.6061 25.6189L41.9117 25.9865L42.5229 26.4768L42.9507 26.967L43.4397 27.3959L44.1731 28.07L44.6009 28.5602L44.7232 28.8053L44.9677 28.9279L45.7622 29.7245L46.1289 30.0309L46.5568 30.5212L46.9846 30.8888L47.2291 31.1952V31.3178L47.4124 31.3791L47.6569 31.6855L47.9625 31.9306V32.0531L48.1459 32.1144L48.5737 32.6046L48.8793 32.8497V32.9723L49.1238 33.0949L49.5516 33.4625V33.5851L49.735 33.6464L50.0406 33.9528L50.3461 34.3204L50.9573 34.9332L51.3241 35.2396L51.7519 35.7298L52.6687 36.5877L53.341 37.2618V37.3844H53.4632V37.5069H53.5855L54.0133 37.9972L54.9912 38.9776V39.1002H55.1134V39.2227L55.3579 39.3453L55.8469 39.7742L56.2747 40.2645L58.3528 42.3479L58.6584 42.5931L59.0862 43.0833L59.6974 43.6961V43.8186H59.8196L60.1252 44.1863L60.6142 44.6153L60.7364 44.8604H60.8586L61.1642 45.1668L61.7143 45.657L62.2033 46.086L62.3255 46.3311L62.5089 46.3923L63.1812 47.3115L63.6701 47.9856V48.1694L63.8535 48.2307L63.7924 48.3533L60.4308 48.4145L59.8807 48.4758L59.4529 48.5371L58.6584 47.8018L58.2305 47.3115L57.1304 46.2085L57.0081 46.1472V46.0247H56.8859V45.9021L56.6414 45.7796L55.7858 44.8604L53.4021 42.4705L53.0965 42.1028L52.6076 41.6739L49.1238 38.181L48.7571 37.752L48.2681 37.3231L46.9235 35.975L46.4956 35.4847L42.0951 31.0727V30.9501L41.8506 30.8275L40.1393 29.1117L39.8948 29.173L23.3315 45.7796L22.9037 46.2698L21.7424 47.4341L21.3146 47.9243L20.8256 48.292L20.52 48.4145H17.8919L17.0973 48.4758L16.8529 48.3533H16.425L16.1805 48.4145L16.425 47.863L16.7917 47.3728L17.0362 47.1277H17.1585L17.2807 46.8826L17.8919 46.2085L18.3197 45.7183L18.6253 45.4119L18.9309 45.0442L19.2365 44.7378H19.3587L19.481 44.4927L20.0922 43.9412L20.3978 43.6348H20.52L20.6422 43.3897L22.9037 41.1224H23.0259L23.087 40.9385H23.2093L23.3315 40.6934L23.8204 40.2032L24.3094 39.7742L24.4928 39.5904H24.615L24.7372 39.3453L25.1651 38.9776L25.4707 38.6712L26.0207 38.0584L27.0598 37.0167L27.4876 36.5265L28.8933 35.1171H29.0156L29.1378 34.8719L30.5435 33.4625L31.0325 33.0336L31.4603 32.6046H31.5826L31.7048 32.3595L32.1326 31.8693L33.9051 30.0922L34.3941 29.6633L35.0664 28.9892H35.1886L35.3108 28.7441L35.6164 28.4377L35.922 28.1926L36.2276 27.8862L36.5332 27.5185H36.6555L36.7777 27.2734H36.8999L37.0222 27.0283L37.3278 26.7832L37.6945 26.3542L38.0001 26.1091H38.1223L38.2446 25.864L38.6113 25.5576L38.978 25.1286H39.1002L39.2225 24.8835L39.7114 24.5158L39.9559 24.3933Z" fill="#E0894A"/>
<path d="M22.7957 4.16858H23.9017L26.4823 4.5364L28.2028 4.90421L30.5376 5.45594L32.5038 5.88506L32.8111 6.06897L32.8725 6.37548L32.1352 6.62069L31.828 6.7433L31.0906 6.8659L28.8786 7.54023L27.404 8.09195L26.0522 8.64368L24.5776 9.31801L23.4101 9.93103L22.1198 10.6667L20.8295 11.4636L19.7849 12.1992L18.4946 13.1801L17.4501 14.0383L16.7127 14.7126L14.5008 16.9195L14.0707 17.41L13.3948 18.2069L12.8418 18.8812L12.2273 19.7395L11.2442 21.1494L10.3226 22.6207L9.89247 23.1724L9.40092 23.6015L8.78648 24.092L8.1106 24.705L7.43472 25.2567L6.69739 25.931L5.89862 26.728L5.40707 27.1571L4.79263 27.7701L4.30107 28.1992L3.68664 28.8123H3.56375L3.44086 29.0575L2.88786 29.6092L2.45776 30.0996L1.5361 31.0805L1.29032 31.387L1.04455 31.5709H0.921659V31.1418L1.10599 30.59L1.35177 29.6092L1.78187 28.0153L2.39631 26.2989L3.19508 24.3372L3.93241 22.7433L4.42396 21.7625L5.0384 20.659L5.89862 19.1877L6.51306 18.2069L7.37327 16.9195L7.92627 16.1839L8.78648 15.0805L9.33948 14.4061L9.83103 13.8544L10.384 13.1801L13.149 10.4215L13.6406 9.99234L14.5008 9.25671L14.9923 8.82759L16.0983 7.96935L17.0814 7.23372L18.3717 6.37548L19.7235 5.51724L21.1982 4.659L21.9355 4.35249L22.3041 4.22989L22.7957 4.16858Z" fill="#FDFDFD"/>
<path d="M78.9555 48.7969L79.0783 48.8582L79.0169 49.4713L78.5868 51.0651L78.2181 52.3525L77.9109 53.2107L77.2965 54.8659L76.6206 56.4598L76.129 57.5019L75.6375 58.4828L74.9616 59.7088L74.3472 60.751L73.6098 61.9157L72.8111 63.0805L72.1966 63.9387L71.5822 64.7356L71.0292 65.41L70.3533 66.2682L69.4931 67.1877L68.8172 67.8621L68.4485 68.2912L67.957 68.7203L66.9124 69.7625L66.4209 70.1916L65.6221 70.8659L64.9462 71.4176L63.6559 72.3985L62.7343 73.0115L61.4439 73.8084L60.2151 74.5441L59.1705 75.1571L57.9416 75.8927L57.573 76.0153H56.2826L54.1321 75.5862L51.9201 75.0958L50.1382 74.728L48.6636 74.4215L47.5576 74.1762L47.0046 73.931L47.0661 73.7471L48.0492 73.5019L49.5853 73.1341L51.8587 72.3985L53.8863 71.6015L55.4224 70.8659L56.467 70.3142L57.2043 69.9464L58.4946 69.1494L60.1536 68.046L61.1367 67.3103L61.9969 66.636L62.6114 66.0843L63.5945 65.1647L64.3318 64.4291H64.4547L64.5776 64.1839L65.6221 63.1418L66.0522 62.6513L66.7896 61.7318L67.6498 60.5671L68.2642 59.7701L69.0015 58.728L69.5545 57.931L70.169 57.0728L71.7051 55.5402L72.381 54.9885L73.1797 54.2529L73.6713 53.8238L74.7158 52.8429L75.2074 52.4138L78.5253 49.1034L78.9555 48.7969Z" fill="#E0894A"/>
<path d="M6.94316 29.2414H7.1275L7.18894 29.6092L6.94316 30.59L6.5745 31.9387L6.08295 34.1456L5.89862 35.8621L5.77573 36.659L5.65284 38.2529L5.5914 38.682V41.7471L5.83717 44.3831L6.14439 46.4674L6.69739 48.7969L7.37327 51.0651L8.1106 53.0268L9.15515 55.4176L9.89247 57.0115L10.2611 58.2989L10.6298 60.1992L10.9985 62.1609L11.3671 63.6935L11.6743 64.9808L12.043 66.3908L12.1659 67.0651L12.2888 67.4943L12.4117 68.046L12.7803 68.9655L12.8418 69.3333L12.5346 69.2107L10.9985 67.6782L10.5684 67.1877L9.95392 66.5134L9.40092 65.8391L8.97081 65.41L8.29493 64.5517L7.49616 63.5096L6.75883 62.4674L6.02151 61.364L4.85407 59.4023L4.11674 58.0536L3.37942 56.4598L2.70353 54.8046L1.78187 52.2299L1.41321 50.9425L0.983103 49.2261L0.737327 47.8774L0.368664 45.4866L0.122888 42.4215L0 39.7241V37.5785L0.184332 37.0268L0.552995 36.4138L0.983103 35.9234L1.65899 35.0651L2.33487 34.2682L3.0722 33.41L3.87097 32.5517L4.30107 32.0613L5.09985 31.2644L5.52995 30.7739L6.08295 30.2222L6.63594 29.5479L6.94316 29.2414Z" fill="#E0894A"/>
<path d="M39.5699 0L41.9048 0.0613027L44.7312 0.306513L46.8203 0.613027L49.278 1.10345L50.8756 1.53257L53.149 2.2682L55.4224 3.12644L57.2043 3.92337L58.6175 4.5977L59.7235 5.21073L61.1367 6.06897L61.9969 6.68199L62.427 7.04981L62.9186 7.72414L63.8402 10.2989L64.5161 12.3218L64.9462 13.7931L65.745 16.1226L65.9908 16.7969L65.9293 16.9808L65.6221 16.9195L64.8233 16.1839L63.9017 15.2644L63.2258 14.7126L62.5499 14.0383L61.7512 13.4253L60.8295 12.6897L60.2151 12.2605L59.7235 11.8927L58.8018 11.2797L56.7127 9.93103L55.7296 9.44061L54.1935 8.70498L52.4117 7.96935L50.384 7.23372L48.8479 6.8046L47.5576 6.49808L46.2058 6.25287L44.4854 6.00766L42.9493 5.82375L42.0276 5.63985L40.1843 5.51724L39.2627 5.27203L35.576 3.98467L32.8725 3.18774L29.4316 2.2069L28.6943 2.02299L28.5714 1.96169V1.77778L30.1075 1.28736L31.6436 0.91954L33.3641 0.551724L34.8387 0.367816L36.129 0.183908L37.7266 0.0613027L39.5699 0Z" fill="#E0894A"/>
<path d="M14.0707 63.0192L14.3779 63.0805L15.361 64L16.0369 64.6743L16.467 65.1647L16.8971 65.5939L17.3886 66.023L18.2488 66.7586L19.1091 67.433L20.0307 68.1686L21.874 69.3946L23.2258 70.1916L24.5161 70.8659L26.2366 71.6628L27.7727 72.2759L29.9232 73.0115L31.5207 73.4406L32.5038 73.6858L33.7327 73.931L35.576 74.1762L37.4194 74.2989L39.8771 74.6054L41.1674 74.9732L43.5637 75.8314L46.2673 76.6283L48.6021 77.3027L50.937 77.8544L51.7358 78.0996V78.3448L50.9985 78.6513L50.1997 78.8966L48.9708 79.1418L47.5576 79.387L45.8372 79.6322L44.6083 79.7548L43.9939 79.8774L42.9493 79.9387L40.6144 80H39.2627L35.9447 79.8774L33.3641 79.5096L31.9508 79.2644L29.616 78.7126L28.1413 78.2835L26.9739 77.9157L25.5607 77.4253L23.7174 76.6283L21.7512 75.7088L20.3379 74.9119L19.2934 74.2989L18.126 73.5632L17.4501 72.9502L16.9585 71.9693L16.1598 69.8238L15.6682 68.2912L14.9309 66.0843L14.5008 64.8582L14.255 64.1226L14.1321 63.6935L14.0092 63.0805L14.0707 63.0192Z" fill="#FDFDFD"/>
<path d="M67.1582 10.9732L67.4654 11.0345L68.2642 11.7701L70.1075 13.6092L70.6605 14.2835L71.4593 15.2644L72.1966 16.2452L72.9954 17.3487L73.8556 18.6973L74.7773 20.1686L75.6375 21.8238L76.4977 23.5402L77.235 25.2567L78.1567 27.7701L78.7711 29.977L78.9555 30.7739L79.0783 31.2644L79.2627 32.4291L79.6928 35.0651L79.8771 36.4751L79.9386 37.272L80 39.4789V41.8697L79.9386 42.6667L79.6928 43.2797L79.2012 44.0153L77.4808 46.0996L76.8049 46.8966L76.2519 47.5709L75.4531 48.3678L75.023 48.8582L74.47 49.41L73.917 50.0843L73.1183 50.8812H72.8725V50.4521L73.3641 48.9195L73.7327 47.3257L74.1628 44.8123L74.3472 42.9119L74.47 42.1149L74.5315 41.318V38.1916L74.2857 35.9847L74.1628 34.9425L73.8556 33.2261L73.6098 32L73.1797 30.4061L72.6267 28.751L72.1352 27.4636L71.1521 25.318L70.2919 23.5402L69.8617 22.3755L69.4316 20.659L69.3702 19.7395L69.1859 19.3716L68.6943 16.9808L68.51 16.3065L68.3871 15.6935L68.2642 15.4483L67.957 13.9157L67.8341 13.4866L67.7112 13.2414L67.6498 12.6284L67.4654 12.3831L67.0968 11.341V11.0345L67.1582 10.9732Z" fill="#FDFDFD"/>
<path d="M36.0061 39.6015H39.1398L39.6313 39.6628L39.6928 39.7854V43.4636L35.9447 43.5249L35.8218 43.4636V39.6628L36.0061 39.6015Z" fill="#E0894A"/>
<path d="M41.2289 39.6015H44.3011L44.6083 39.7241L44.6697 39.7854V43.4023L44.4854 43.4636H40.8602L40.7988 43.4023V41.5632L40.8602 39.7241L41.2289 39.6015Z" fill="#E0894A"/>
<path d="M35.8833 44.4444H39.5699L39.6928 44.5057L39.6313 48.2452L37.5422 48.3065H35.9447L35.8218 48.2452L35.7604 47.6322L35.8218 44.5057L35.8833 44.4444Z" fill="#E0894A"/>
<path d="M42.0276 44.4444H44.424L44.5468 44.5057L44.6083 44.8123L44.6697 48.1839L44.2396 48.3065L40.9217 48.2452L40.8602 48.0613L40.7988 45.5479V44.5057H41.4747L42.0276 44.4444Z" fill="#E0894A"/>
</svg>
